<svg width="203" height="31" viewBox="0 0 203 31" fill="none" xmlns="http://www.w3.org/2000/svg">
<path d="M18.0705 11.9191H13.9226L13.1431 18.1548H17.1796V19.2683H13.0039L12.3358 24.7803H11.2223L11.8904 19.2683H5.79385L5.0979 24.7803H3.98437L4.65249 19.2683H0.643799V18.1548H4.79168L5.57114 11.9191H1.50678V10.8055H5.71034L6.37845 5.29359H7.51981L6.82386 10.8055H12.9482L13.6164 5.29359H14.7299L14.0618 10.8055H18.0705V11.9191ZM12.0296 18.1548L12.8091 11.9191H6.68467L5.93304 18.1548H12.0296Z" fill="#10405A"/>
<path d="M22.3695 24.7803V5.29359H30.0806C36.2607 5.29359 40.4364 9.35795 40.4364 15.0369C40.4364 20.7159 36.2607 24.7803 30.0806 24.7803H22.3695ZM23.7892 23.4997H29.9693C35.4812 23.4997 39.0167 19.9921 39.0167 15.0369C39.0167 10.0817 35.4812 6.57414 29.9693 6.57414H23.7892V23.4997Z" fill="#10405A"/>
<path d="M57.2276 17.4588C57.2276 17.5702 57.1997 17.7094 57.1997 17.8486H44.7004C44.8396 21.3005 47.3729 23.6389 50.8527 23.6389C52.69 23.6389 54.3881 22.9708 55.5016 21.6067L56.3089 22.5254C55.0284 24.0843 53.024 24.8916 50.8248 24.8916C46.4264 24.8916 43.3364 21.8294 43.3364 17.5145C43.3364 13.1996 46.315 10.1374 50.2959 10.1374C54.2767 10.1374 57.2276 13.1439 57.2276 17.4588ZM50.2959 11.3623C47.2059 11.3623 44.951 13.5893 44.7283 16.7629H55.8635C55.6687 13.6172 53.3859 11.3623 50.2959 11.3623Z" fill="#10405A"/>
<path d="M65.2082 24.8916C62.8141 24.8916 60.5314 24.0843 59.39 23.0265L60.0303 21.9129C61.1438 22.8594 63.1203 23.6667 65.2639 23.6667C68.3261 23.6667 69.551 22.5811 69.551 20.9386C69.551 16.7072 59.919 19.8251 59.919 14.1183C59.919 11.9191 61.7563 10.1374 65.4309 10.1374C67.2682 10.1374 69.2726 10.6942 70.4139 11.5572L69.7737 12.6707C68.5488 11.7799 66.962 11.3623 65.4031 11.3623C62.5636 11.3623 61.3109 12.5315 61.3109 14.0904C61.3109 18.461 70.9429 15.371 70.9429 20.9108C70.9429 23.277 68.9107 24.8916 65.2082 24.8916Z" fill="#10405A"/>
<path d="M75.5233 6.71333C74.883 6.71333 74.382 6.21225 74.382 5.59981C74.382 4.98737 74.883 4.45845 75.5233 4.45845C76.1636 4.45845 76.6647 4.95953 76.6647 5.57197C76.6647 6.21225 76.1636 6.71333 75.5233 6.71333ZM74.8274 24.7803V10.2488H76.2193V24.7803H74.8274Z" fill="#10405A"/>
<path d="M93.8336 10.2488H95.1699V23.2213C95.1699 28.093 92.8036 30.2922 88.1268 30.2922C85.4822 30.2922 82.9489 29.4571 81.4735 27.9817L82.2251 26.9238C83.6727 28.26 85.7606 29.0395 88.099 29.0395C91.9685 29.0395 93.7779 27.2579 93.7779 23.3884V20.9386C92.5809 23.0543 90.3539 24.2513 87.7371 24.2513C83.617 24.2513 80.4992 21.3283 80.4992 17.1805C80.4992 13.0326 83.617 10.1374 87.7371 10.1374C90.4095 10.1374 92.6644 11.3623 93.8336 13.5337V10.2488ZM87.8484 22.9986C91.3003 22.9986 93.8058 20.6046 93.8058 17.1805C93.8058 13.7564 91.3003 11.3901 87.8484 11.3901C84.4243 11.3901 81.9189 13.7564 81.9189 17.1805C81.9189 20.6046 84.4243 22.9986 87.8484 22.9986Z" fill="#10405A"/>
<path d="M108.16 10.1374C111.696 10.1374 114.062 12.2253 114.062 16.2896V24.7803H112.67V16.401C112.67 13.1161 110.916 11.3901 107.965 11.3901C104.541 11.3901 102.453 13.5893 102.453 17.0413V24.7803H101.062V10.2488H102.398V13.3945C103.372 11.3623 105.404 10.1374 108.16 10.1374Z" fill="#10405A"/>
<path d="M125.555 25.1143C122.465 25.1143 119.347 24.1957 117.621 22.8594L119.152 19.4632C120.795 20.6602 123.244 21.4954 125.583 21.4954C128.255 21.4954 129.341 20.6046 129.341 19.4075C129.341 15.7607 118.011 18.2661 118.011 11.0282C118.011 7.71551 120.683 4.95953 126.223 4.95953C128.673 4.95953 131.178 5.54413 132.988 6.6855L131.596 10.1096C129.786 9.07957 127.921 8.57849 126.195 8.57849C123.523 8.57849 122.493 9.58066 122.493 10.8055C122.493 14.3967 133.823 11.9191 133.823 19.0735C133.823 22.3305 131.123 25.1143 125.555 25.1143Z" fill="#10405A"/>
<path d="M145.701 9.58066C149.237 9.58066 151.909 11.6407 151.909 16.2061V24.7803H147.566V16.8742C147.566 14.4523 146.453 13.3388 144.532 13.3388C142.444 13.3388 140.941 14.6194 140.941 17.3753V24.7803H136.598V4.12439H140.941V11.3623C142.11 10.1931 143.78 9.58066 145.701 9.58066Z" fill="#10405A"/>
<path d="M163.135 25.003C158.375 25.003 154.895 21.8016 154.895 17.2918C154.895 12.782 158.375 9.58066 163.135 9.58066C167.896 9.58066 171.348 12.782 171.348 17.2918C171.348 21.8016 167.896 25.003 163.135 25.003ZM163.135 21.4397C165.307 21.4397 166.949 19.8808 166.949 17.2918C166.949 14.7029 165.307 13.1439 163.135 13.1439C160.964 13.1439 159.294 14.7029 159.294 17.2918C159.294 19.8808 160.964 21.4397 163.135 21.4397Z" fill="#10405A"/>
<path d="M182.741 20.9943L183.91 24.0565C183.019 24.6968 181.711 25.003 180.375 25.003C176.839 25.003 174.779 23.1935 174.779 19.6302V13.478H172.469V10.1374H174.779V6.49063H179.122V10.1374H182.852V13.478H179.122V19.5745C179.122 20.8551 179.818 21.551 180.987 21.551C181.627 21.551 182.268 21.3562 182.741 20.9943Z" fill="#10405A"/>
<path d="M190.643 7.54703H191.428V0.802255H194.036V0.123535H188.034V0.802255H190.643V7.54703Z" fill="#10405A"/>
<path d="M202.353 0.123535L199.161 5.62753L195.937 0.123535H195.29V7.54703H196.043V1.64005L198.959 6.60319H199.331L202.247 1.60823V7.54703H203V0.123535H202.353Z" fill="#10405A"/>
</svg>
