<svg width="225" height="35" viewBox="0 0 225 35" fill="none" xmlns="http://www.w3.org/2000/svg">
<path d="M223.326 3.91421C222.874 3.49806 222.277 3.27108 221.659 3.281C221.032 3.26705 220.424 3.49406 219.963 3.91421C219.728 4.1343 219.544 4.40181 219.423 4.69852C219.302 4.99522 219.248 5.31417 219.263 5.63363C219.247 5.95098 219.302 6.26788 219.422 6.5623C219.543 6.85671 219.728 7.12157 219.963 7.33843C220.424 7.75859 221.032 7.9856 221.659 7.97164C222.277 7.98157 222.874 7.75459 223.326 7.33843C223.562 7.12201 223.747 6.85736 223.869 6.56292C223.99 6.26848 224.046 5.95135 224.031 5.63363C224.045 5.3138 223.99 4.99463 223.868 4.6979C223.746 4.40117 223.561 4.13387 223.326 3.91421Z" fill="#10405A"/>
<path d="M223.577 10.5959H219.706V27.1296H223.577V10.5959Z" fill="#10405A"/>
<path d="M203.055 27.1338H206.931V13.79C207.187 13.7511 207.581 13.6975 208.114 13.6342C208.624 13.5715 209.138 13.5389 209.652 13.5368C210.223 13.5236 210.791 13.6144 211.329 13.8046C211.772 13.9732 212.153 14.2724 212.419 14.6618C212.718 15.1218 212.919 15.6371 213.01 16.1763C213.139 16.9227 213.198 17.679 213.188 18.436V27.1338H217.058V17.837C217.066 16.8001 216.954 15.7658 216.723 14.7543C216.528 13.8779 216.133 13.0568 215.569 12.3534C214.988 11.6583 214.233 11.1246 213.38 10.8047C212.276 10.4017 211.104 10.2131 209.928 10.2495C208.608 10.2426 207.289 10.3386 205.984 10.5369C205.002 10.6827 204.029 10.8827 203.07 11.1359L203.055 27.1338Z" fill="#10405A"/>
<path d="M198.513 12.3734C197.225 10.9611 195.43 10.2534 193.129 10.2501C192.14 10.2516 191.161 10.44 190.244 10.8053C189.305 11.1717 188.455 11.733 187.754 12.4514C186.987 13.2378 186.392 14.1709 186.004 15.1932C185.543 16.4134 185.32 17.709 185.348 19.0112C185.332 20.166 185.498 21.3162 185.841 22.4202C186.157 23.4297 186.692 24.3589 187.409 25.1426C188.155 25.9392 189.076 26.5557 190.101 26.9445C191.326 27.4017 192.628 27.6216 193.937 27.5922C194.506 27.5909 195.074 27.56 195.639 27.4996C196.191 27.4363 196.704 27.3584 197.187 27.2561C197.619 27.1787 198.045 27.0746 198.464 26.9445C198.768 26.8601 199.064 26.7475 199.347 26.6084L198.853 23.4819C198.26 23.7176 197.646 23.8986 197.019 24.0225C196.171 24.1968 195.307 24.2801 194.44 24.2708C192.843 24.2708 191.615 23.9104 190.777 23.1799C190.342 22.7895 189.991 22.3168 189.744 21.7897C189.498 21.2627 189.361 20.6921 189.342 20.1119H200.387C200.412 19.9073 200.431 19.6638 200.441 19.4008C200.451 19.1379 200.441 18.9138 200.441 18.6947C200.461 15.8944 199.815 13.7809 198.513 12.3734ZM189.381 17.3214C189.448 16.8351 189.566 16.357 189.731 15.8944C189.894 15.446 190.14 15.0315 190.456 14.6721C190.784 14.2779 191.196 13.9614 191.664 13.7456C192.132 13.5298 192.642 13.4204 193.158 13.4254C193.668 13.4154 194.173 13.5168 194.638 13.7224C195.047 13.9152 195.407 14.1984 195.688 14.5503C195.992 14.9106 196.216 15.3305 196.344 15.7824C196.497 16.2679 196.574 16.7738 196.57 17.2824L189.381 17.3214Z" fill="#10405A"/>
<path d="M174.634 24.1386C173.935 23.9557 173.249 23.7312 172.577 23.4665L171.907 26.6564C172.525 26.8876 173.155 27.0843 173.795 27.2456C174.96 27.5142 176.155 27.6353 177.35 27.606C179.546 27.606 181.238 27.2002 182.424 26.3885C183.007 25.9907 183.476 25.4516 183.787 24.8231C184.098 24.1946 184.24 23.4977 184.199 22.7993C184.213 22.156 184.115 21.5152 183.908 20.9049C183.716 20.3739 183.404 19.8928 182.996 19.4975C182.53 19.0506 181.996 18.6777 181.413 18.392C180.654 18.0157 179.874 17.6824 179.076 17.3937C178.595 17.2327 178.122 17.0457 177.661 16.8336C177.332 16.686 177.02 16.5049 176.729 16.293C176.517 16.1432 176.347 15.9419 176.236 15.7086C176.134 15.4803 176.083 15.2327 176.088 14.983C176.079 14.7311 176.144 14.4819 176.275 14.2658C176.406 14.0496 176.598 13.8758 176.828 13.7655C177.424 13.4792 178.083 13.3436 178.746 13.371C179.522 13.3596 180.297 13.4397 181.053 13.6097C181.613 13.7337 182.159 13.9081 182.686 14.1308L183.391 11.0334C182.733 10.806 182.059 10.6285 181.374 10.5026C180.445 10.3227 179.5 10.233 178.554 10.2348C176.611 10.2348 175.076 10.6731 173.948 11.5497C173.394 11.9693 172.95 12.5145 172.654 13.1392C172.358 13.7638 172.218 14.4497 172.247 15.1388C172.227 15.8148 172.353 16.4872 172.617 17.1112C172.851 17.6359 173.196 18.1057 173.628 18.4894C174.085 18.8829 174.596 19.2108 175.146 19.4634C175.778 19.7661 176.424 20.0359 177.084 20.2718C177.952 20.558 178.781 20.9507 179.55 21.4406C179.78 21.5872 179.969 21.7883 180.1 22.0257C180.231 22.263 180.299 22.529 180.299 22.7993C180.32 23.0522 180.265 23.3055 180.14 23.5273C180.015 23.7492 179.827 23.9297 179.599 24.0461C178.888 24.3331 178.122 24.4579 177.355 24.4113C176.44 24.4359 175.525 24.3443 174.634 24.1386Z" fill="#10405A"/>
<path d="M168.041 12.3244C166.749 10.9072 164.96 10.2011 162.657 10.2011C161.663 10.1983 160.678 10.3869 159.758 10.7563C158.828 11.1264 157.988 11.6856 157.292 12.3974C156.535 13.1872 155.943 14.1175 155.552 15.1344C155.093 16.3568 154.872 17.6539 154.901 18.9573C154.887 20.1119 155.053 21.2617 155.394 22.3663C155.707 23.3819 156.239 24.3188 156.952 25.113C157.695 25.9118 158.617 26.5273 159.644 26.91C160.871 27.3663 162.175 27.5829 163.485 27.548C164.053 27.5481 164.621 27.5188 165.186 27.4603C165.739 27.397 166.251 27.3191 166.73 27.2168C167.163 27.1384 167.592 27.0326 168.012 26.9003C168.315 26.8204 168.609 26.7094 168.889 26.5691L168.396 23.4426C167.801 23.6764 167.185 23.8557 166.557 23.9783C165.711 24.1568 164.848 24.2418 163.983 24.2315C162.376 24.2315 161.158 23.8663 160.32 23.1406C159.884 22.748 159.534 22.2726 159.289 21.7429C159.044 21.2132 158.91 20.6401 158.895 20.0579H169.915C169.915 19.8534 169.954 19.6099 169.964 19.3469C169.974 19.0839 169.964 18.8599 169.964 18.6408C169.974 15.86 169.333 13.7318 168.041 12.3244ZM158.909 17.248C158.973 16.7632 159.089 16.2865 159.255 15.8259C159.42 15.3763 159.667 14.9604 159.984 14.5987C160.294 14.2318 160.681 13.936 161.118 13.7318C161.606 13.4969 162.144 13.3816 162.686 13.3958C163.195 13.3866 163.7 13.4863 164.166 13.688C164.576 13.884 164.937 14.1686 165.221 14.5208C165.522 14.8833 165.745 15.3025 165.877 15.7529C166.029 16.2368 166.104 16.7412 166.099 17.248H158.909Z" fill="#10405A"/>
<path d="M154.28 10.8193C154.087 10.756 153.831 10.6878 153.51 10.6099C153.19 10.532 152.859 10.4735 152.524 10.42C152.189 10.3664 151.839 10.3274 151.499 10.2934C151.158 10.2593 150.858 10.2495 150.601 10.2495C149.349 10.2391 148.1 10.3599 146.874 10.6099C145.924 10.8063 144.988 11.065 144.073 11.3842V27.1289H147.924V13.8825C148.247 13.7891 148.577 13.7159 148.91 13.6634C149.359 13.5824 149.814 13.54 150.271 13.5368C150.932 13.5295 151.593 13.5865 152.243 13.7072C152.693 13.7941 153.138 13.9063 153.574 14.0432L154.28 10.8193Z" fill="#10405A"/>
<path d="M141.065 14.0588C140.868 13.2666 140.47 12.5373 139.907 11.9405C139.344 11.3437 138.636 10.8993 137.85 10.6498C136.808 10.3067 135.714 10.142 134.615 10.1628C133.605 10.1558 132.597 10.2389 131.602 10.4111C130.878 10.5232 130.163 10.6859 129.462 10.8981L129.956 13.9954C130.553 13.7966 131.167 13.65 131.79 13.5571C132.604 13.4222 133.429 13.3587 134.255 13.3672C134.815 13.3491 135.374 13.435 135.902 13.6205C136.309 13.7687 136.674 14.0108 136.967 14.3266C137.233 14.6328 137.422 14.9965 137.519 15.3883C137.634 15.8008 137.69 16.2268 137.687 16.6545V17.3216C137.191 17.1959 136.687 17.1048 136.178 17.0489C135.733 16.9962 135.285 16.9685 134.837 16.9661C133.95 16.9633 133.066 17.0548 132.199 17.2389C131.406 17.394 130.649 17.6929 129.965 18.1203C129.321 18.5307 128.791 19.0931 128.422 19.7566C128.023 20.4956 127.827 21.3253 127.855 22.1624C127.824 23.0214 127.993 23.876 128.348 24.6607C128.66 25.3101 129.131 25.8725 129.719 26.297C130.358 26.7448 131.083 27.0581 131.849 27.2175C132.754 27.4166 133.679 27.5114 134.605 27.4999C135.968 27.5121 137.33 27.4209 138.678 27.2272C139.886 27.0568 140.789 26.9058 141.395 26.7743V16.7275C141.407 15.8273 141.296 14.9296 141.065 14.0588ZM137.657 24.2516C136.757 24.4021 135.844 24.4657 134.931 24.4416C134.119 24.4845 133.311 24.3023 132.598 23.9156C132.026 23.5747 131.726 22.9416 131.726 22.0358C131.714 21.6283 131.829 21.227 132.056 20.8865C132.269 20.5782 132.562 20.3325 132.904 20.1755C133.276 20.0005 133.674 19.8854 134.083 19.8346C134.513 19.7644 134.948 19.7302 135.384 19.7323C135.834 19.7266 136.282 19.7608 136.726 19.8346C137.04 19.8739 137.351 19.9341 137.657 20.0148V24.2516Z" fill="#10405A"/>
<path d="M117.422 22.1524C118.004 23.9089 118.573 25.5679 119.128 27.1296H122.284C122.734 26.1556 123.193 25.0485 123.659 23.8082C124.153 22.5664 124.601 21.2418 125.075 19.8295C125.548 18.4172 126.011 16.9318 126.485 15.3685C126.958 13.8053 127.412 12.2177 127.861 10.5959H123.862C123.671 11.4823 123.446 12.4368 123.186 13.4595C122.93 14.4773 122.654 15.5244 122.363 16.586C122.072 17.6477 121.781 18.6899 121.48 19.7028C121.179 20.7158 120.888 21.6508 120.612 22.4836C120.284 21.5096 119.97 20.508 119.67 19.4788C119.371 18.4496 119.084 17.4172 118.808 16.3815C118.541 15.3491 118.292 14.3426 118.058 13.3621C117.825 12.3816 117.611 11.4596 117.417 10.5959H114.459C114.265 11.4628 114.044 12.3849 113.798 13.3621C113.551 14.3393 113.29 15.3458 113.014 16.3815C112.733 17.4139 112.442 18.4464 112.131 19.4788C111.821 20.5113 111.505 21.5145 111.185 22.4836C110.884 21.6411 110.583 20.7109 110.282 19.7028C109.981 18.6947 109.695 17.6526 109.414 16.586C109.133 15.5195 108.867 14.4773 108.611 13.4595C108.354 12.4417 108.118 11.4823 107.935 10.5959H103.838C104.288 12.2193 104.747 13.8101 105.213 15.3685C105.68 16.9269 106.15 18.4139 106.624 19.8295C107.117 21.2418 107.565 22.5664 108.039 23.8082C108.512 25.0501 108.956 26.1604 109.385 27.1296H112.565C113.117 25.5712 113.676 23.9121 114.242 22.1524C114.807 20.3927 115.335 18.5844 115.824 16.7273C116.304 18.5844 116.837 20.3927 117.422 22.1524Z" fill="#10405A"/>
<path d="M92.275 20.5546C92.2626 21.536 92.3585 22.5158 92.561 23.4766C92.7218 24.2671 93.0586 25.0124 93.5471 25.6584C94.0405 26.2903 94.7008 26.7756 95.4553 27.0609C96.4132 27.4075 97.4286 27.5727 98.4483 27.5479C99.3129 27.5615 100.175 27.46 101.012 27.246C101.611 27.0886 102.199 26.8934 102.773 26.6616L102.132 23.6276C101.707 23.7871 101.274 23.9237 100.835 24.0367C100.224 24.1952 99.5931 24.2706 98.9611 24.2607C97.9405 24.2607 97.2107 23.9782 96.7867 23.4084C96.3626 22.8386 96.1506 21.85 96.1506 20.5205V13.7902H102.102V10.5955H96.1506V5.59888L92.2799 6.23198L92.275 20.5546Z" fill="#10405A"/>
<path d="M81.3579 4.41653C80.2304 5.62754 79.665 7.29795 79.6617 9.42776V27.1302H83.5373V13.7913H89.6169V10.5966H83.5274V9.49107C83.523 8.9997 83.576 8.50947 83.6852 8.03007C83.778 7.61066 83.9632 7.21659 84.2276 6.87588C84.499 6.54227 84.8519 6.28248 85.2532 6.12103C85.7521 5.92737 86.2853 5.83463 86.8212 5.84831C87.3434 5.84463 87.8643 5.89854 88.3744 6.00902C88.8107 6.09897 89.2357 6.23616 89.6416 6.4181L90.3763 3.25748C89.8723 3.08524 89.3587 2.94215 88.8379 2.82892C88.0604 2.66314 87.2664 2.58472 86.4711 2.59516C84.1898 2.5984 82.4854 3.20553 81.3579 4.41653Z" fill="#10405A"/>
<path d="M76.3776 15.2901C76.0152 14.2831 75.4556 13.3564 74.7308 12.5629C74.0212 11.7967 73.149 11.1947 72.1766 10.8C71.1483 10.3807 70.0445 10.1719 68.9321 10.1863C67.8229 10.1709 66.7221 10.3797 65.6976 10.8C64.7309 11.1974 63.8641 11.7992 63.1582 12.5629C62.4237 13.3529 61.857 14.2802 61.4916 15.2901C61.0837 16.4332 60.8817 17.6381 60.895 18.8501C60.8835 20.0651 61.0854 21.2729 61.4916 22.4198C61.8527 23.4346 62.4123 24.3695 63.1385 25.1713C63.845 25.9313 64.7073 26.5339 65.668 26.9391C66.7006 27.3663 67.8129 27.5737 68.9321 27.5479C70.0575 27.5661 71.1743 27.3521 72.2111 26.9196C73.1778 26.5149 74.0466 25.9124 74.7603 25.1518C75.4872 24.354 76.041 23.4176 76.3875 22.4003C76.7887 21.2525 76.9856 20.0447 76.9693 18.8306C76.9818 17.6254 76.7815 16.4274 76.3776 15.2901ZM71.9399 22.7948C71.5876 23.2474 71.1348 23.614 70.6162 23.8662C70.0977 24.1185 69.5274 24.2497 68.9494 24.2497C68.3714 24.2497 67.8011 24.1185 67.2826 23.8662C66.7641 23.614 66.3112 23.2474 65.9589 22.7948C65.2439 21.8208 64.884 20.5107 64.884 18.8501C64.884 17.1894 65.2439 15.8988 65.9589 14.9541C66.3129 14.504 66.7664 14.1398 67.2846 13.8892C67.8029 13.6387 68.3724 13.5084 68.9494 13.5084C69.5265 13.5084 70.0959 13.6387 70.6142 13.8892C71.1325 14.1398 71.5859 14.504 71.9399 14.9541C72.6549 15.9037 73.0148 17.2089 73.0148 18.8501C73.0148 20.4912 72.6401 21.8354 71.9251 22.7948H71.9399Z" fill="#10405A"/>
<path d="M49.4804 23.9537C48.7788 23.7744 48.0889 23.5532 47.4144 23.2914L46.7438 26.4813C47.3612 26.7109 47.9918 26.9044 48.6323 27.0608C49.7963 27.3338 50.9913 27.4566 52.1874 27.426C54.3832 27.426 56.0728 27.0202 57.2562 26.2085C57.84 25.8116 58.3104 25.2728 58.6222 24.6442C58.9339 24.0156 59.0765 23.3182 59.0362 22.6194C59.0503 21.9761 58.9518 21.3352 58.7453 20.7249C58.5525 20.1939 58.2406 19.7128 57.8331 19.3175C57.3664 18.8706 56.8325 18.4977 56.2503 18.212C55.4911 17.8357 54.7107 17.5024 53.9131 17.2137C53.3609 17.0237 52.8875 16.8387 52.5029 16.6634C52.1761 16.5148 51.8655 16.3337 51.5759 16.1228C51.3648 15.9717 51.1953 15.7708 51.0829 15.5384C50.9805 15.3101 50.93 15.0624 50.9349 14.8128C50.9248 14.5607 50.9894 14.3113 51.1208 14.095C51.2522 13.8787 51.4447 13.705 51.6746 13.5953C52.271 13.3089 52.9301 13.1734 53.5926 13.2008C54.3687 13.1894 55.1434 13.2695 55.9002 13.4394C56.4593 13.5635 57.0056 13.7379 57.5323 13.9605L58.2325 10.8583C57.5725 10.637 56.8968 10.4645 56.2109 10.3421C55.2835 10.162 54.3405 10.0722 53.3954 10.0743C51.4527 10.0743 49.9159 10.5126 48.7851 11.3891C48.2328 11.8091 47.7906 12.3538 47.4954 12.9775C47.2003 13.6011 47.0609 14.2856 47.0889 14.9735C47.0688 15.651 47.1949 16.325 47.4587 16.9507C47.6862 17.4718 48.0222 17.9397 48.4449 18.324C48.9023 18.7175 49.4136 19.0453 49.9636 19.298C50.594 19.6011 51.2409 19.8693 51.9014 20.1016C52.769 20.391 53.597 20.7852 54.3668 21.2752C54.6114 21.4204 54.8133 21.6262 54.9526 21.8722C55.0919 22.1182 55.1636 22.3959 55.1606 22.6778C55.181 22.9312 55.1249 23.1848 54.9994 23.4067C54.8739 23.6286 54.6847 23.8088 54.4555 23.9245C53.747 24.2121 52.9815 24.337 52.2169 24.2898C51.2939 24.2949 50.374 24.182 49.4804 23.9537Z" fill="#10405A"/>
<path d="M39.1798 20.5781V25.1511C39.1798 28.8182 37.8484 30.995 36.9017 31.969C35.8761 33.0599 33.9038 34.7206 29.7373 34.7206H25.5363V27.1137H28.332C28.6954 27.1341 29.0592 27.0836 29.4027 26.9649C29.7463 26.8462 30.0627 26.6618 30.3339 26.4221C30.6084 26.1568 30.8187 25.8339 30.9493 25.4772C31.0799 25.1206 31.1275 24.7394 31.0883 24.3621C31.0883 23.6608 31.0883 21.7859 31.113 20.5781H39.1798Z" fill="#7BC794"/>
<path d="M13.6484 0.275757V7.91191H10.8477C10.4828 7.89041 10.1172 7.94044 9.77189 8.05913C9.42662 8.17782 9.10854 8.36281 8.83598 8.60344C8.56123 8.86832 8.351 9.19138 8.22116 9.54824C8.09133 9.90511 8.04528 10.2864 8.0865 10.6635C8.0865 11.355 8.0865 13.2299 8.05198 14.428H0V9.86477C0 6.20254 1.33131 4.02078 2.27803 3.04678C3.30363 1.94616 5.27595 0.275757 9.44739 0.275757H13.6484Z" fill="#7BC794"/>
<path d="M31.1526 0.276022C31.1526 0.276022 27.0994 0.100702 24.2494 1.39612C21.3994 2.69154 19.6293 4.17202 18.2437 7.17193C16.8187 10.2546 15.4283 16.9411 13.5792 20.9491C11.7302 24.9571 8.11096 24.3922 8.11096 24.3922V34.7263C8.11096 34.7263 12.169 34.9017 15.0141 33.6062C17.8591 32.3108 19.3187 30.7086 20.7091 27.8353C22.6272 23.8663 23.5246 18.0564 25.3687 14.063C25.8343 12.953 26.6475 12.0194 27.6891 11.399C28.7308 10.7785 29.9463 10.5038 31.1575 10.615L31.1526 0.276022Z" fill="#00AFAA"/>
</svg>
